<?xml version="1.0" standalone="no"?>
<!DOCTYPE svg PUBLIC "-//W3C//DTD SVG 20010904//EN"
 "http://www.w3.org/TR/2001/REC-SVG-20010904/DTD/svg10.dtd">
<svg version="1.0" xmlns="http://www.w3.org/2000/svg"
 width="1024.000000pt" height="1024.000000pt" viewBox="0 0 1024.000000 1024.000000"
 preserveAspectRatio="xMidYMid meet">

<g transform="translate(0.000000,1024.000000) scale(0.100000,-0.100000)"
fill="#000000" stroke="none">
<path d="M3383 7775 c-425 -77 -776 -405 -882 -825 -39 -155 -43 -328 -38
-1645 6 -1351 4 -1323 63 -1487 137 -380 438 -651 822 -739 66 -15 139 -22
299 -26 l212 -6 3 -269 3 -270 33 -29 c45 -40 74 -37 189 20 116 58 1080 497
1138 518 l40 15 395 -165 c217 -90 534 -224 704 -296 182 -77 323 -131 342
-131 21 0 42 9 63 29 l31 29 0 276 0 275 461 3 461 3 24 28 24 28 0 2310 0
2311 -29 29 -29 29 -2129 -1 c-1700 -1 -2142 -3 -2200 -14z m1411 -781 c96
-24 181 -83 224 -154 44 -74 55 -122 49 -207 -7 -98 -42 -162 -120 -220 -70
-51 -131 -71 -250 -83 -253 -25 -433 48 -508 205 -35 72 -39 162 -12 239 37
103 158 199 283 225 30 6 64 13 75 15 38 9 191 -3 259 -20z m624 -81 l3 -103
357 -2 357 -3 3 -72 3 -73 -456 0 -455 0 0 180 0 181 93 -3 92 -3 3 -102z
m1862 -18 l0 -85 -350 0 -351 0 3 -127 3 -128 348 -3 347 -2 0 -85 0 -85 -447
2 -448 3 -3 298 -2 297 450 0 450 0 0 -85z m-1115 -370 l0 -70 -492 -3 -493
-2 0 75 0 75 493 -2 492 -3 0 -70z m-2355 10 c37 -19 50 -43 50 -93 0 -33 -6
-45 -31 -66 l-31 -26 -405 0 -405 0 -29 29 c-48 49 -36 125 26 159 14 8 145
11 408 12 327 0 393 -2 417 -15z m2310 -295 l0 -150 -350 0 -350 0 0 -30 0
-30 370 0 370 0 0 -60 0 -60 -465 0 -465 0 0 150 0 150 345 0 345 0 0 30 0 30
-345 0 -345 0 0 60 0 60 445 0 445 0 0 -150z m808 81 c10 -6 13 -34 10 -110
l-3 -101 203 0 202 0 0 -80 0 -80 -495 0 -495 0 0 80 0 80 195 0 195 0 0 110
0 110 88 0 c48 0 93 -4 100 -9z m-2218 -121 l0 -90 200 0 200 0 0 -80 0 -80
-495 0 -495 0 0 80 0 80 200 0 200 0 0 90 0 90 95 0 95 0 0 -90z m2578 -572
c9 -9 12 -89 12 -300 l0 -287 98 -3 97 -3 0 -150 0 -150 -97 -3 -98 -3 0 -362
c0 -269 -3 -366 -12 -375 -13 -13 -271 -18 -302 -6 -14 6 -16 87 -16 823 0
450 3 821 7 824 12 13 298 8 311 -5z m-2780 -10 c8 -8 12 -49 12 -120 l0 -108
375 0 375 0 0 120 0 120 158 0 c110 0 162 -4 170 -12 9 -9 12 -134 12 -500 l0
-488 -720 0 -720 0 0 500 0 500 163 0 c113 0 167 -4 175 -12z m2242 -295 c-1
-284 -8 -370 -41 -498 -81 -313 -300 -563 -592 -676 -125 -48 -258 -81 -274
-67 -10 8 -13 44 -11 156 l3 145 96 33 c172 60 302 150 379 264 67 99 86 90
-201 90 -140 0 -260 4 -267 8 -9 7 -12 40 -10 133 l3 124 293 3 292 2 0 135 0
135 -269 0 c-148 0 -276 3 -285 6 -14 5 -16 27 -16 140 l0 134 450 0 450 0 0
-267z m-2925 165 c15 -14 28 -38 32 -60 5 -32 1 -41 -25 -68 l-30 -30 -407 0
-407 0 -30 30 c-26 27 -30 36 -25 68 4 22 17 46 32 60 l26 22 404 0 404 0 26
-22z m1223 -920 c8 -8 12 -50 12 -125 l0 -113 299 0 c243 0 301 -3 310 -14 8
-9 11 -56 9 -142 l-3 -129 -775 0 -775 0 0 140 0 140 308 3 307 2 0 113 c0 75
4 117 12 125 17 17 279 17 296 0z m-1229 -94 c38 -32 49 -80 27 -122 -9 -17
-25 -36 -35 -42 -13 -6 -163 -10 -416 -10 -253 0 -403 4 -416 10 -10 6 -26 25
-35 42 -22 42 -11 90 27 122 l31 26 393 0 393 0 31 -26z m971 -1434 c-9 -5
-153 -71 -321 -148 -167 -77 -328 -151 -357 -166 l-52 -26 0 175 0 175 373 0
c225 0 366 -4 357 -10z"/>
<path d="M4570 6854 c-142 -22 -210 -84 -210 -192 0 -83 52 -141 150 -167 105
-28 228 -11 298 41 91 70 83 204 -17 271 -49 33 -158 56 -221 47z"/>
<path d="M4520 5015 l0 -115 375 0 375 0 0 115 0 115 -375 0 -375 0 0 -115z"/>
</g>
</svg>
